HIERARCHY
ROOT Hips
{
	OFFSET 0.000000 0.000000 0.000000 
	CHANNELS 6 Xposition Yposition Zposition Zrotation Yrotation Xrotation
	JOINT LeftUpLeg
	{
		OFFSET 1.363060 -1.794630 0.839290 
		CHANNELS 3 Zrotation Yrotation Xrotation
		JOINT LeftLeg
		{
			OFFSET 2.448110 -6.726130 0.000000 
			CHANNELS 3 Zrotation Yrotation Xrotation
			JOINT LeftFoot
			{
				OFFSET 2.562200 -7.039590 0.000000 
				CHANNELS 3 Zrotation Yrotation Xrotation
				JOINT LeftToeBase
				{
					OFFSET 0.157640 -0.433110 2.322550 
					CHANNELS 3 Zrotation Yrotation Xrotation
					End Site
					{
						OFFSET 0.000000 0.000000 0.000000 
					}
				}
			}
		}
	}
	JOINT RightUpLeg
	{
		OFFSET -1.305520 -1.794630 0.839290 
		CHANNELS 3 Zrotation Yrotation Xrotation
		JOINT RightLeg
		{
			OFFSET -2.542530 -6.985550 0.000000 
			CHANNELS 3 Zrotation Yrotation Xrotation
			JOINT RightFoot
			{
				OFFSET -2.568260 -7.056230 0.000000 
				CHANNELS 3 Zrotation Yrotation Xrotation
				JOINT RightToeBase
				{
					OFFSET -0.164730 -0.452590 2.363150 
					CHANNELS 3 Zrotation Yrotation Xrotation
					End Site
					{
						OFFSET 0.000000 0.000000 0.000000 
					}
				}
			}
		}
	}
	JOINT Spine
	{
		OFFSET 0.028270 2.035590 -0.193380 
		CHANNELS 3 Zrotation Yrotation Xrotation
		JOINT Spine1
		{
			OFFSET 0.056720 2.048850 -0.042750 
			CHANNELS 3 Zrotation Yrotation Xrotation
			JOINT Neck1
			{
				OFFSET -0.054170 1.746240 0.172020 
				CHANNELS 3 Zrotation Yrotation Xrotation
				JOINT Head
				{
					OFFSET 0.104070 1.761360 -0.123970 
					CHANNELS 3 Zrotation Yrotation Xrotation
					End Site
					{
						OFFSET 0.000000 0.000000 0.000000 
					}
				}
			}
			JOINT LeftArm
			{
				OFFSET 3.362410 1.200890 -0.311210 
				CHANNELS 3 Zrotation Yrotation Xrotation
				JOINT LeftForeArm
				{
					OFFSET 4.983000 -0.000000 -0.000000 
					CHANNELS 3 Zrotation Yrotation Xrotation
					JOINT LeftHand
					{
						OFFSET 3.483560 -0.000000 -0.000000 
						CHANNELS 3 Zrotation Yrotation Xrotation
						JOINT LeftHandIndex1
						{
							OFFSET 0.715260 -0.000000 -0.000000 
							CHANNELS 3 Zrotation Yrotation Xrotation
							End Site
							{
								OFFSET 0.000000 0.000000 0.000000 
							}
						}
					}
				}
			}
			JOINT RightArm
			{
				OFFSET -3.136600 1.374050 -0.404650 
				CHANNELS 3 Zrotation Yrotation Xrotation
				JOINT RightForeArm
				{
					OFFSET -5.241900 -0.000000 -0.000000 
					CHANNELS 3 Zrotation Yrotation Xrotation
					JOINT RightHand
					{
						OFFSET -3.444170 -0.000000 -0.000000 
						CHANNELS 3 Zrotation Yrotation Xrotation
						JOINT RightHandIndex1
						{
							OFFSET -0.622530 -0.000000 -0.000000 
							CHANNELS 3 Zrotation Yrotation Xrotation
							End Site
							{
								OFFSET 0.000000 0.000000 0.000000 
							}
						}
					}
				}
			}
		}
	}
}
MOTION
Frames: 6
Frame Time: 0.041667
10.613647 16.111997 27.050926 -177.288365 1.853208 -164.205771 -21.218732 -1.234892 -45.078913 8.268573 20.303378 60.058069 2.695672 -0.409066 -22.380289 1.582500 -7.936200 -22.520400 27.539335 10.274358 -40.626659 -7.588444 -20.659056 60.608060 -0.705800 -9.456718 -28.223175 -0.009900 0.643100 -1.767200 5.392216 -1.053656 10.472516 -3.144859 0.098537 -21.081781 13.489475 1.720306 -7.878254 2.685300 0.609600 -1.148500 -54.810238 39.026792 -43.114319 32.401913 -33.124516 -8.430423 1.564101 1.456598 1.418742 -7.125000 0.000000 0.000000 47.451695 -51.312655 -14.134958 -23.856302 25.403663 -7.334564 0.318539 -1.669983 28.658170 7.125000 0.000000 0.000000 
10.627916 16.029865 27.039674 -177.746543 1.591492 -163.847957 -21.713777 -1.431451 -46.140048 8.725700 20.631142 61.409803 2.780786 -0.498989 -22.911100 1.740500 -8.303200 -23.638800 27.040555 10.358289 -41.692667 -8.143586 -21.024623 62.170460 -0.850240 -9.381427 -28.808743 -0.006600 0.526000 -1.445300 4.918547 -0.928304 11.019572 -2.875306 0.221215 -20.514644 13.574393 1.363980 -8.521121 2.723800 0.455700 -1.230400 -57.296504 36.513379 -42.924101 32.312882 -32.996932 -8.451904 1.589970 1.417736 1.812900 -7.125000 0.000000 0.000000 51.410885 -49.078943 -15.268914 -23.838821 25.013450 -7.401790 0.359184 -1.627700 28.935044 7.125000 0.000000 0.000000 
10.649145 15.938916 27.047330 -177.948956 1.211726 -163.222068 -21.908548 -1.724574 -47.511006 9.206809 20.971271 62.716098 2.962756 -1.070103 -23.199904 1.594900 -7.965800 -22.610100 26.767744 10.661728 -43.138677 -8.666022 -21.436339 63.666828 -0.939137 -9.392112 -29.213511 -0.003100 0.358200 -0.984200 4.878217 -0.807669 11.243156 -2.671000 0.331694 -19.934125 13.842773 1.245136 -9.552902 2.878000 0.401300 -1.500100 -59.745083 34.066054 -42.468764 32.026881 -32.759592 -8.420271 1.628249 1.369101 2.152795 -7.125000 0.000000 0.000000 54.855227 -46.477879 -16.223397 -23.516062 24.498260 -7.316378 0.391350 -1.575941 29.485006 7.125000 0.000000 0.000000 
10.672115 15.828014 27.076564 -177.695735 0.549525 -162.036944 -21.532734 -2.356370 -49.394566 9.697266 21.387294 64.005870 3.118545 -1.645981 -23.380029 1.463000 -7.644200 -21.638600 26.940888 11.134737 -45.196246 -9.165509 -21.940428 65.152935 -1.008230 -9.429770 -29.547002 -0.000100 -0.065400 0.179700 5.626686 -0.599537 9.585563 -2.628667 0.400083 -20.182154 14.138235 1.094910 -10.069459 3.055000 0.334200 -1.704200 -62.075465 32.438924 -41.071875 31.693327 -32.479168 -8.336550 1.644013 1.307823 2.323776 -7.125000 0.000000 0.000000 57.392805 -44.700896 -15.878345 -23.212979 24.156682 -7.193442 0.409282 -1.524010 29.495382 7.125000 0.000000 0.000000 
10.700768 15.750870 27.083408 -177.864809 -0.811295 -161.562662 -21.246348 -3.552840 -50.255587 10.082314 21.715450 65.062984 3.223746 -2.021687 -23.609551 1.506300 -7.751600 -21.962200 27.005474 10.632127 -46.374443 -9.630996 -22.218047 66.455009 -1.134276 -9.409298 -30.105321 -0.005200 -0.464900 1.277600 6.286026 -0.801847 8.993412 -2.394590 0.347100 -20.327603 14.384100 0.885092 -10.808741 3.231100 0.241800 -1.951100 -64.511856 30.574735 -39.208990 31.378536 -32.176189 -8.223109 1.613368 1.264681 2.011134 -7.125000 0.000000 0.000000 59.932359 -42.308508 -15.650453 -22.832807 23.847777 -7.031773 0.422793 -1.446475 29.116827 7.125000 0.000000 0.000000 
10.713645 15.678018 27.096981 -178.259685 -1.449281 -160.822996 -21.370755 -4.473510 -51.402383 10.371174 22.027606 65.979178 3.156838 -1.777108 -23.813712 1.742400 -8.307600 -23.652500 26.563555 10.612281 -47.821578 -10.060470 -22.526705 67.633931 -1.103518 -9.647815 -30.217483 -0.006300 -0.510600 1.403100 6.076644 -0.758054 8.715950 -2.217793 0.402805 -20.120344 14.872741 0.588294 -11.633658 3.470900 0.120000 -2.152100 -66.801645 28.520409 -36.963631 31.083552 -31.903862 -8.125482 1.570897 1.223257 1.592197 -7.125000 0.000000 0.000000 62.664931 -39.304653 -15.757922 -22.252483 23.399603 -6.773914 0.426225 -1.351063 28.896557 7.125000 0.000000 0.000000 
